<?xml version="1.0" standalone="no"?>
<!DOCTYPE svg PUBLIC "-//W3C//DTD SVG 1.1//EN" "http://www.w3.org/Graphics/SVG/1.1/DTD/svg11.dtd" >
<svg xmlns="http://www.w3.org/2000/svg" xmlns:xlink="http://www.w3.org/1999/xlink" version="1.1">
<metadata></metadata>
<defs>
<font id="leanerthin" horiz-adv-x="1120" >
<font-face units-per-em="2048" ascent="1638" descent="-410" />
<missing-glyph horiz-adv-x="512" />
<glyph horiz-adv-x="0" />
<glyph horiz-adv-x="682" />
<glyph unicode=" "  horiz-adv-x="512" />
<glyph unicode="&#x09;" horiz-adv-x="512" />
<glyph unicode="&#xa0;" horiz-adv-x="512" />
<glyph unicode="!" horiz-adv-x="305" d="M113 0v90h80v-90h-80zM119 1434h65l-8 -1207h-49z" />
<glyph unicode="&#x22;" horiz-adv-x="372" d="M61 1620h86l-24 -291h-37zM225 1620h86l-24 -291h-37z" />
<glyph unicode="#" horiz-adv-x="1761" d="M113 494l12 53h491l80 342h-493l12 51h494l114 494h51l-116 -494h346l113 494h51l-115 -494h496l-13 -51h-495l-78 -344h493l-12 -51h-495l-113 -494h-49l112 494h-342l-116 -492h-49l114 492h-493zM668 547h344l80 342h-342z" />
<glyph unicode="$" horiz-adv-x="1136" d="M113 238l45 20q55 -117 156.5 -171t226.5 -54v665q-203 53 -313.5 156.5t-110.5 237.5q0 109 57 191.5t153.5 128.5t213.5 48v211h51v-211q147 -10 264 -89t168 -202l-47 -20q-94 231 -385 258v-670q195 -57 298 -161.5t103 -241.5q0 -96 -54 -175t-146.5 -126 t-200.5 -51v-228h-51v228q-150 8 -255.5 67.5t-172.5 188.5zM166 1092q0 -139 115.5 -221.5t259.5 -122.5v659q-103 -2 -189 -42t-136 -110.5t-50 -162.5zM592 31q145 6 247.5 89t102.5 214q0 137 -103.5 221t-246.5 127v-651z" />
<glyph unicode="%" horiz-adv-x="1515" d="M113 1108q0 90 41 165t110.5 118t149.5 43q82 0 152.5 -44t111.5 -119t41 -163t-42 -163t-111.5 -119t-151.5 -44q-80 0 -149.5 44t-110.5 119t-41 163zM162 1108q0 -74 33.5 -137.5t92 -101.5t126.5 -38q69 0 127.5 38t93.5 101.5t35 137.5q0 76 -35 139.5t-93.5 100 t-127.5 36.5q-68 0 -126.5 -36.5t-92 -100t-33.5 -139.5zM240 0l970 1434h56l-975 -1434h-51zM801 326q0 88 41 163.5t110.5 119.5t149.5 44q82 0 150.5 -44t109.5 -119.5t41 -163.5q0 -86 -40 -161t-109.5 -120t-151.5 -45q-80 0 -149.5 44t-110.5 119t-41 163zM850 326 q0 -115 72.5 -195t179.5 -80q106 0 179 80t73 195q0 76 -34 140t-91.5 102t-126.5 38q-70 0 -127 -38t-91 -102.5t-34 -139.5z" />
<glyph unicode="&#x26;" horiz-adv-x="1353" d="M113 416q0 166 104.5 289.5t274.5 164.5q-78 39 -124 114t-46 161q-4 80 36.5 151.5t112.5 114.5t158 43h112v-53h-112q-106 0 -180 -73t-74 -183q0 -115 80 -188.5t198 -73.5h219v293h52v-293h196v-52h-196v-485q0 -86 43 -158.5t115.5 -114.5t158.5 -42v-51 q-117 0 -210 65.5t-134 169.5q-41 -104 -135 -169.5t-209 -65.5q-121 0 -221.5 58t-159.5 158.5t-59 219.5zM164 416q2 -106 54 -194.5t141.5 -139.5t195.5 -51q86 0 158.5 42t114.5 114.5t42 158.5v485h-264q-117 0 -218 -54t-162.5 -150.5t-61.5 -210.5z" />
<glyph unicode="'" horiz-adv-x="208" d="M61 1620h86l-24 -291h-37z" />
<glyph unicode="(" horiz-adv-x="509" d="M113 717q0 244 75.5 487.5t217.5 458.5h63q-147 -215 -227 -458.5t-80 -487.5t78.5 -487.5t224.5 -456.5h-62q-141 215 -215.5 457.5t-74.5 486.5z" />
<glyph unicode=")" horiz-adv-x="509" d="M41 -225q147 213 226 455.5t79 488.5t-79 488.5t-224 455.5h61q141 -213 217 -456.5t76 -487.5q0 -242 -75.5 -485.5t-219.5 -458.5h-61z" />
<glyph unicode="*" horiz-adv-x="630" d="M20 1368l31 96l236 -98l-23 254h101l-19 -254l234 100l30 -94l-245 -59l165 -195l-81 -57l-132 215l-133 -217l-82 59l166 191z" />
<glyph unicode="+" horiz-adv-x="1130" d="M113 692v49h426v430h53v-430h426v-49h-426v-426h-53v426h-426z" />
<glyph unicode="," horiz-adv-x="296" d="M61 -172l82 276l93 -26l-146 -260z" />
<glyph unicode="-" horiz-adv-x="792" d="M113 692v49h567v-49h-567z" />
<glyph unicode="." horiz-adv-x="237" d="M61 0v115h115v-115h-115z" />
<glyph unicode="/" horiz-adv-x="866" d="M61 -106l693 1646h51l-692 -1646h-52z" />
<glyph unicode="0" horiz-adv-x="1069" d="M113 420v594q0 119 56 220t153.5 160.5t212.5 59.5t212 -59.5t153 -162t56 -222.5v-590q0 -119 -56 -220.5t-153.5 -160.5t-211.5 -59q-115 0 -212.5 59t-153.5 160.5t-56 220.5zM162 418q0 -72 24.5 -137.5t67.5 -116.5l561 1102q-53 63 -125 100t-155 37 q-100 0 -186.5 -53.5t-136.5 -143.5t-50 -196v-592zM289 123q106 -96 243 -96q101 0 187 52t136 142t50 197v596q0 111 -57 207z" />
<glyph unicode="1" horiz-adv-x="499" d="M113 1075l276 379v-1454h-49v1300l-188 -256z" />
<glyph unicode="2" horiz-adv-x="1042" d="M113 0l686 823q37 45 58.5 96.5t21.5 131.5q0 96 -47.5 177t-129 129t-178.5 48q-113 0 -205 -64.5t-129 -171.5l-47 19q43 119 148.5 192.5t232.5 73.5q109 0 202 -54t147.5 -147.5t54.5 -201.5q0 -90 -24.5 -148.5t-65.5 -109.5l-617 -744h709v-49h-817z" />
<glyph unicode="3" horiz-adv-x="1130" d="M113 199l43 28q61 -92 159.5 -144t208.5 -52q119 0 221.5 60.5t162 161.5t59.5 222q0 186 -116 311t-316 144l319 452h-590v52h688l-334 -473q115 -20 206 -91t143.5 -174.5t52.5 -220.5q0 -135 -66.5 -248.5t-181.5 -180t-248 -66.5q-125 0 -233.5 58t-177.5 161z" />
<glyph unicode="4" horiz-adv-x="1030" d="M113 334l694 1120v-1071h113v-49h-113v-334h-49v334h-645zM201 383h555v897z" />
<glyph unicode="5" horiz-adv-x="1089" d="M113 141l39 37q61 -70 147 -106.5t180 -36.5q121 0 223.5 60.5t163 161.5t60.5 222t-60.5 223.5t-163 163t-223.5 60.5q-88 0 -167 -31t-140 -92l-43 20l76 611h577v-50h-530l-66 -503q131 96 293 96q135 0 250 -67.5t182.5 -182.5t67.5 -250t-67.5 -248.5t-183.5 -181 t-251 -67.5q-102 0 -198.5 43t-165.5 118z" />
<glyph unicode="6" horiz-adv-x="1175" d="M113 455q0 147 75 260l486 719h61l-379 -564q113 61 232 62q129 0 238.5 -64.5t174 -174t64.5 -238.5q0 -127 -64.5 -236.5t-174 -174t-238.5 -64.5q-127 0 -236.5 64.5t-174 174t-64.5 236.5zM164 455q0 -115 57.5 -212.5t154.5 -154.5t212 -57q114 0 212.5 57 t156 154.5t57.5 212.5t-57.5 213t-156 155.5t-212.5 57.5q-115 0 -212 -57.5t-154.5 -156t-57.5 -212.5z" />
<glyph unicode="7" horiz-adv-x="1019" d="M113 1384v50h796l-731 -1434h-55l704 1384h-714z" />
<glyph unicode="8" d="M113 428q0 152 91 270.5t232 159.5q-84 35 -135 113t-51 172q0 84 42 155.5t113.5 113.5t155.5 42q82 0 153.5 -42t113.5 -113.5t42 -155.5q0 -94 -51 -172t-135 -113q141 -41 232.5 -159.5t91.5 -270.5q0 -121 -60.5 -224.5t-163 -163.5t-223.5 -60q-123 0 -225.5 60 t-162.5 162.5t-60 225.5zM162 428q0 -109 54 -200t145.5 -144t199.5 -53q109 0 200 54t144 145.5t53 199.5q0 109 -54 199t-145 143t-198 53q-109 0 -200 -54t-145 -145t-54 -198zM301 1143q0 -70 36 -130.5t96.5 -95t129.5 -34.5q70 0 130.5 34.5t95 95t34.5 130.5 t-35.5 130t-96 96t-130.5 36q-72 0 -131 -36t-94 -95.5t-35 -130.5z" />
<glyph unicode="9" horiz-adv-x="1175" d="M113 979q0 127 64.5 236.5t174 174t236.5 64.5q129 0 238.5 -64.5t174 -174t64.5 -236.5q0 -145 -78 -260l-485 -719h-62l381 563q-112 -61 -233 -61q-127 0 -236.5 64.5t-174 174t-64.5 238.5zM164 981q0 -115 57.5 -212t154.5 -154.5t212 -57.5q114 0 212.5 57.5 t156 154.5t57.5 212t-57.5 212t-156 154.5t-212.5 57.5q-117 0 -214.5 -57.5t-153.5 -154.5t-56 -212z" />
<glyph unicode=":" horiz-adv-x="241" d="M61 600v115h115v-115h-115zM66 0v115h114v-115h-114z" />
<glyph unicode=";" horiz-adv-x="313" d="M61 -172l82 276l93 -26l-146 -260zM137 600v115h115v-115h-115z" />
<glyph unicode="&#x3c;" horiz-adv-x="985" d="M113 649l759 426v-55l-655 -371l655 -364v-56l-2 -2z" />
<glyph unicode="=" horiz-adv-x="1021" d="M113 483v49h796v-49h-796zM113 889v49h796v-49h-796z" />
<glyph unicode="&#x3e;" horiz-adv-x="985" d="M113 229v56l657 364l-657 371v55l759 -426z" />
<glyph unicode="?" horiz-adv-x="866" d="M113 1364q115 90 264 90q100 0 187 -49t138.5 -134t51.5 -184q0 -190 -224 -366q-98 -78 -156.5 -152.5t-58.5 -169.5v-172h-51v174q0 115 68.5 199t169.5 162q96 76 149.5 152.5t53.5 172.5q0 86 -44.5 158t-120 114t-163.5 42q-127 0 -234 -78zM250 0v90h82v-90h-82z " />
<glyph unicode="@" horiz-adv-x="1935" d="M113 705v26q0 233 115.5 430t312 311.5t428.5 114.5q233 0 428.5 -114.5t310.5 -311t115 -430.5v-233q0 -98 -70 -169t-170 -71q-98 0 -169 70.5t-71 169.5v4q-57 -104 -157.5 -167t-222.5 -63q-117 0 -215.5 57.5t-155.5 156t-57 214.5q0 117 57 215.5t155.5 156.5 t215.5 58q121 0 222 -62t158 -167v156h50v-559q0 -78 55 -134.5t135 -56.5t135.5 56.5t55.5 134.5v233q0 219 -109 404.5t-293 294t-403 108.5t-404.5 -108.5t-294 -294t-108.5 -404.5v-26q0 -219 108.5 -404.5t294 -294t404.5 -108.5h172v-50h-172q-232 0 -428.5 115 t-312 311.5t-115.5 430.5zM584 700q0 -102 51 -189t138 -138t190 -51q104 0 191 51t138 138t51 189q0 104 -51 191.5t-138 138.5t-191 51q-102 0 -189.5 -51t-138.5 -138t-51 -192z" />
<glyph unicode="A" d="M102 0l459 1475l457 -1475h-53l-82 256h-650l-79 -256h-52zM252 307h616l-307 1004z" />
<glyph unicode="B" horiz-adv-x="991" d="M113 0v1434h286q84 0 151.5 -41t106.5 -112t39 -157q0 -84 -44 -153.5t-120 -104.5q160 -37 263.5 -155.5t103.5 -274.5q0 -121 -58.5 -221t-156.5 -157.5t-213 -57.5h-358zM162 53h307q102 0 189 51.5t138.5 138.5t51.5 189q0 111 -61.5 202t-160 143t-206.5 52h-258 v-776zM162 881h213q112 0 192 68.5t80 174.5q0 117 -69.5 186.5t-178.5 69.5h-237v-499z" />
<glyph unicode="C" horiz-adv-x="1267" d="M92 717q0 201 93.5 369.5t252 268t346.5 99.5q197 0 371 -113l-29 -43q-162 106 -342 107q-174 0 -320.5 -93t-233.5 -251t-87 -344t87 -344t233.5 -251t320.5 -93q184 0 334 102l29 -43q-163 -108 -359 -108h-4q-188 0 -346.5 99t-252 268t-93.5 370z" />
<glyph unicode="D" horiz-adv-x="1169" d="M113 0v1434h239q197 0 364 -97.5t264 -264.5t97 -361q0 -197 -96 -360t-262 -257t-367 -94h-239zM162 49h188q187 0 340.5 88t243.5 239.5t90 334.5q0 182 -90 336.5t-246 245.5t-338 91h-188v-1335z" />
<glyph unicode="E" horiz-adv-x="921" d="M113 0v1434h696v-50h-647v-448h631v-49h-631v-838h647v-49h-696z" />
<glyph unicode="F" horiz-adv-x="872" d="M113 0v1434h667v-50h-618v-446h325v-49h-325v-889h-49z" />
<glyph unicode="G" horiz-adv-x="1271" d="M92 717q0 201 93.5 369.5t252 268t346.5 99.5q197 0 371 -113l-29 -43q-162 106 -342 107q-174 0 -320.5 -93t-233.5 -251t-87 -344t87 -344t233.5 -251t320.5 -93t326 94v567h-207v51h256v-647l-12 -6q-163 -108 -359 -108h-4q-188 0 -346.5 99t-252 268t-93.5 370z" />
<glyph unicode="H" horiz-adv-x="1046" d="M113 0v1434h49v-863h723v863h49v-1434h-49v518h-723v-518h-49z" />
<glyph unicode="I" horiz-adv-x="315" d="M133 0v1434h49v-1434h-49z" />
<glyph unicode="J" horiz-adv-x="839" d="M92 176l47 21q33 -76 103.5 -121t156.5 -45q74 0 137.5 40t101.5 107.5t38 145.5v1060h-215v50h266v-1110q0 -92 -44 -171t-119 -125t-165 -46q-94 0 -179 49t-128 145z" />
<glyph unicode="K" horiz-adv-x="958" d="M113 0v1434h49v-895l643 895h61l-463 -646l455 -788h-57l-428 743l-211 -292v-451h-49z" />
<glyph unicode="L" horiz-adv-x="870" d="M113 0v1434h49v-1385h616v-49h-665z" />
<glyph unicode="M" horiz-adv-x="1472" d="M113 0v1454l622 -1067l625 1067v-1454h-49v1272l-576 -983l-573 983v-1272h-49z" />
<glyph unicode="N" horiz-adv-x="1118" d="M94 4v1462l860 -1314v1282h52v-1454l-863 1314v-1290h-49z" />
<glyph unicode="O" horiz-adv-x="1568" d="M92 717q0 199 93.5 368.5t252 269t346.5 99.5q186 0 346 -99.5t253.5 -269.5t93.5 -368q0 -199 -93.5 -369t-253 -269t-346.5 -99q-188 0 -346.5 99t-252 269t-93.5 369zM143 717q0 -186 87 -345t233.5 -251t320.5 -92t321.5 92t233.5 250.5t86 345.5q0 186 -87 345 t-233.5 251t-320.5 92t-321.5 -92t-233.5 -251t-86 -345z" />
<glyph unicode="P" horiz-adv-x="962" d="M113 0v1434h331q115 0 213.5 -58.5t155.5 -157t57 -214.5q0 -125 -67.5 -226.5t-178 -160t-231.5 -58.5h-231v-559h-49zM162 608h231q109 0 207 53.5t158.5 144.5t60.5 198q0 102 -50 190t-136 139t-191 51h-280v-776z" />
<glyph unicode="Q" horiz-adv-x="1560" d="M92 721q0 199 93.5 367.5t251 267t343.5 98.5t344 -98.5t251 -267t93 -367.5q0 -164 -64.5 -308.5t-176.5 -246.5l164 -150l-33 -36l-170 153q-88 -70 -191.5 -106.5t-216.5 -36.5q-186 0 -345 98t-251 266t-92 367zM143 721q0 -186 86 -342t231.5 -248t319.5 -92 q201 0 371 127l-117 104l33 39l121 -110q106 98 167.5 233t61.5 289q0 186 -86 343t-232.5 249t-318.5 92t-318.5 -92t-232.5 -250t-86 -342z" />
<glyph unicode="R" horiz-adv-x="1009" d="M113 0v1434h350q123 0 227.5 -61.5t166 -166t61.5 -229.5q0 -139 -83 -255t-210 -173l278 -549h-55l-270 530q-83 -28 -166 -28h-6h-244v-502h-49zM162 555h241q119 0 225.5 55.5t170 151.5t63.5 215q0 109 -54 203t-146.5 149t-200.5 55h-299v-829z" />
<glyph unicode="S" horiz-adv-x="1093" d="M92 270l47 19q51 -119 167 -189.5t253 -70.5q106 0 194.5 38.5t140.5 111.5t52 169q0 145 -122 225t-271 119q-207 53 -319.5 156.5t-112.5 241.5q0 113 60.5 195.5t161.5 125.5t218 43q141 0 263 -67.5t177 -188.5l-45 -20q-57 115 -159.5 170t-235.5 55 q-166 0 -277.5 -85t-111.5 -224q0 -143 112.5 -224.5t280.5 -128.5q432 -125 432 -391q0 -111 -58 -195.5t-158.5 -129.5t-221.5 -45q-160 0 -287 78.5t-180 211.5z" />
<glyph unicode="T" horiz-adv-x="1056" d="M92 1384v50h873v-50h-414v-1384h-49v1384h-410z" />
<glyph unicode="U" horiz-adv-x="1171" d="M113 426v1008h49v-1008q0 -104 58.5 -195.5t156.5 -146.5t209 -55t209 55t156.5 146.5t58.5 195.5v1008h49v-1008q0 -119 -64.5 -221.5t-173 -163.5t-235.5 -61q-125 0 -234.5 61t-174 163.5t-64.5 221.5z" />
<glyph unicode="V" horiz-adv-x="1091" d="M92 1434h51l404 -1287l401 1287h51l-452 -1454z" />
<glyph unicode="W" horiz-adv-x="1693" d="M92 1434h49l314 -1270l405 1300l381 -1298l311 1268h50l-355 -1454l-389 1318l-409 -1316z" />
<glyph unicode="X" horiz-adv-x="1193" d="M102 0l465 723l-454 711h59l424 -662l426 662h61l-456 -711l465 -723h-62l-434 676l-434 -676h-60z" />
<glyph unicode="Y" horiz-adv-x="1116" d="M92 1434h60l407 -713l410 713h55l-440 -768v-666h-49v666z" />
<glyph unicode="Z" horiz-adv-x="1234" d="M113 0l915 1384h-887v50h981l-913 -1385h883v-49h-979z" />
<glyph unicode="[" horiz-adv-x="499" d="M113 -227v1890h346v-51h-297v-1788h297v-51h-346z" />
<glyph unicode="\" horiz-adv-x="866" d="M61 1540h52l692 -1646h-51z" />
<glyph unicode="]" horiz-adv-x="499" d="M41 -176h297v1788h-297v51h346v-1888h-346v49z" />
<glyph unicode="^" horiz-adv-x="993" d="M104 1161l388 643l389 -643h-58l-331 539l-330 -539h-58z" />
<glyph unicode="_" horiz-adv-x="808" d="M113 0h583v-57h-583v57z" />
<glyph unicode="`" horiz-adv-x="452" d="M113 1774h84l114 -218h-37z" />
<glyph unicode="a" d="M102 0l459 1475l457 -1475h-53l-82 256h-650l-79 -256h-52zM252 307h616l-307 1004z" />
<glyph unicode="b" horiz-adv-x="991" d="M113 0v1434h286q84 0 151.5 -41t106.5 -112t39 -157q0 -84 -44 -153.5t-120 -104.5q160 -37 263.5 -155.5t103.5 -274.5q0 -121 -58.5 -221t-156.5 -157.5t-213 -57.5h-358zM162 53h307q102 0 189 51.5t138.5 138.5t51.5 189q0 111 -61.5 202t-160 143t-206.5 52h-258 v-776zM162 881h213q112 0 192 68.5t80 174.5q0 117 -69.5 186.5t-178.5 69.5h-237v-499z" />
<glyph unicode="c" horiz-adv-x="1267" d="M92 717q0 201 93.5 369.5t252 268t346.5 99.5q197 0 371 -113l-29 -43q-162 106 -342 107q-174 0 -320.5 -93t-233.5 -251t-87 -344t87 -344t233.5 -251t320.5 -93q184 0 334 102l29 -43q-163 -108 -359 -108h-4q-188 0 -346.5 99t-252 268t-93.5 370z" />
<glyph unicode="d" horiz-adv-x="1169" d="M113 0v1434h239q197 0 364 -97.5t264 -264.5t97 -361q0 -197 -96 -360t-262 -257t-367 -94h-239zM162 49h188q187 0 340.5 88t243.5 239.5t90 334.5q0 182 -90 336.5t-246 245.5t-338 91h-188v-1335z" />
<glyph unicode="e" horiz-adv-x="921" d="M113 0v1434h696v-50h-647v-448h631v-49h-631v-838h647v-49h-696z" />
<glyph unicode="f" horiz-adv-x="872" d="M113 0v1434h667v-50h-618v-446h325v-49h-325v-889h-49z" />
<glyph unicode="g" horiz-adv-x="1271" d="M92 717q0 201 93.5 369.5t252 268t346.5 99.5q197 0 371 -113l-29 -43q-162 106 -342 107q-174 0 -320.5 -93t-233.5 -251t-87 -344t87 -344t233.5 -251t320.5 -93t326 94v567h-207v51h256v-647l-12 -6q-163 -108 -359 -108h-4q-188 0 -346.5 99t-252 268t-93.5 370z" />
<glyph unicode="h" horiz-adv-x="1046" d="M113 0v1434h49v-863h723v863h49v-1434h-49v518h-723v-518h-49z" />
<glyph unicode="i" horiz-adv-x="315" d="M133 0v1434h49v-1434h-49z" />
<glyph unicode="j" horiz-adv-x="839" d="M92 176l47 21q33 -76 103.5 -121t156.5 -45q74 0 137.5 40t101.5 107.5t38 145.5v1060h-215v50h266v-1110q0 -92 -44 -171t-119 -125t-165 -46q-94 0 -179 49t-128 145z" />
<glyph unicode="k" horiz-adv-x="958" d="M113 0v1434h49v-895l643 895h61l-463 -646l455 -788h-57l-428 743l-211 -292v-451h-49z" />
<glyph unicode="l" horiz-adv-x="870" d="M113 0v1434h49v-1385h616v-49h-665z" />
<glyph unicode="m" horiz-adv-x="1472" d="M113 0v1454l622 -1067l625 1067v-1454h-49v1272l-576 -983l-573 983v-1272h-49z" />
<glyph unicode="n" horiz-adv-x="1118" d="M94 4v1462l860 -1314v1282h52v-1454l-863 1314v-1290h-49z" />
<glyph unicode="o" horiz-adv-x="1568" d="M92 717q0 199 93.5 368.5t252 269t346.5 99.5q186 0 346 -99.5t253.5 -269.5t93.5 -368q0 -199 -93.5 -369t-253 -269t-346.5 -99q-188 0 -346.5 99t-252 269t-93.5 369zM143 717q0 -186 87 -345t233.5 -251t320.5 -92t321.5 92t233.5 250.5t86 345.5q0 186 -87 345 t-233.5 251t-320.5 92t-321.5 -92t-233.5 -251t-86 -345z" />
<glyph unicode="p" horiz-adv-x="962" d="M113 0v1434h331q115 0 213.5 -58.5t155.5 -157t57 -214.5q0 -125 -67.5 -226.5t-178 -160t-231.5 -58.5h-231v-559h-49zM162 608h231q109 0 207 53.5t158.5 144.5t60.5 198q0 102 -50 190t-136 139t-191 51h-280v-776z" />
<glyph unicode="q" horiz-adv-x="1560" d="M92 721q0 199 93.5 367.5t251 267t343.5 98.5t344 -98.5t251 -267t93 -367.5q0 -164 -64.5 -308.5t-176.5 -246.5l164 -150l-33 -36l-170 153q-88 -70 -191.5 -106.5t-216.5 -36.5q-186 0 -345 98t-251 266t-92 367zM143 721q0 -186 86 -342t231.5 -248t319.5 -92 q201 0 371 127l-117 104l33 39l121 -110q106 98 167.5 233t61.5 289q0 186 -86 343t-232.5 249t-318.5 92t-318.5 -92t-232.5 -250t-86 -342z" />
<glyph unicode="r" horiz-adv-x="1009" d="M113 0v1434h350q123 0 227.5 -61.5t166 -166t61.5 -229.5q0 -139 -83 -255t-210 -173l278 -549h-55l-270 530q-83 -28 -166 -28h-6h-244v-502h-49zM162 555h241q119 0 225.5 55.5t170 151.5t63.5 215q0 109 -54 203t-146.5 149t-200.5 55h-299v-829z" />
<glyph unicode="s" horiz-adv-x="1093" d="M92 270l47 19q51 -119 167 -189.5t253 -70.5q106 0 194.5 38.5t140.5 111.5t52 169q0 145 -122 225t-271 119q-207 53 -319.5 156.5t-112.5 241.5q0 113 60.5 195.5t161.5 125.5t218 43q141 0 263 -67.5t177 -188.5l-45 -20q-57 115 -159.5 170t-235.5 55 q-166 0 -277.5 -85t-111.5 -224q0 -143 112.5 -224.5t280.5 -128.5q432 -125 432 -391q0 -111 -58 -195.5t-158.5 -129.5t-221.5 -45q-160 0 -287 78.5t-180 211.5z" />
<glyph unicode="t" horiz-adv-x="1056" d="M92 1384v50h873v-50h-414v-1384h-49v1384h-410z" />
<glyph unicode="u" horiz-adv-x="1171" d="M113 426v1008h49v-1008q0 -104 58.5 -195.5t156.5 -146.5t209 -55t209 55t156.5 146.5t58.5 195.5v1008h49v-1008q0 -119 -64.5 -221.5t-173 -163.5t-235.5 -61q-125 0 -234.5 61t-174 163.5t-64.5 221.5z" />
<glyph unicode="v" horiz-adv-x="1091" d="M92 1434h51l404 -1287l401 1287h51l-452 -1454z" />
<glyph unicode="w" horiz-adv-x="1693" d="M92 1434h49l314 -1270l405 1300l381 -1298l311 1268h50l-355 -1454l-389 1318l-409 -1316z" />
<glyph unicode="x" horiz-adv-x="1193" d="M102 0l465 723l-454 711h59l424 -662l426 662h61l-456 -711l465 -723h-62l-434 676l-434 -676h-60z" />
<glyph unicode="y" horiz-adv-x="1116" d="M92 1434h60l407 -713l410 713h55l-440 -768v-666h-49v666z" />
<glyph unicode="z" horiz-adv-x="1234" d="M113 0l915 1384h-887v50h981l-913 -1385h883v-49h-979z" />
<glyph unicode="{" horiz-adv-x="751" d="M113 725l252 166v426q0 94 46 173t125.5 126t174.5 47v-49q-80 0 -147.5 -40t-107.5 -107.5t-40 -147.5v-457l-211 -137l211 -137v-469q0 -80 40 -148.5t107.5 -108.5t147.5 -40v-49q-95 0 -173.5 46t-125.5 126t-47 174v440z" />
<glyph unicode="|" horiz-adv-x="294" d="M123 -225v1888h49v-1888h-49z" />
<glyph unicode="}" horiz-adv-x="751" d="M41 -178q80 0 147.5 40t106.5 107.5t39 147.5v456l211 138l-211 137v469q0 80 -39 148.5t-106.5 108.5t-147.5 40v49q94 0 173 -46t126 -126t47 -174v-440l252 -166l-252 -166v-426q0 -94 -46 -173t-126 -126t-174 -47v49z" />
<glyph unicode="~" horiz-adv-x="743" d="M113 641q0 55 28.5 93t85.5 38q31 0 66 -16.5t84 -46.5q47 -29 76.5 -43.5t54.5 -14.5q53 0 68.5 36t9.5 83l43 -10q2 -10 2 -31q0 -53 -32 -92t-91 -39q-45 0 -83 18.5t-89 51.5q-39 25 -62.5 37t-46.5 12q-37 0 -51 -26.5t-14 -61.5q0 -20 2 -27l-49 6q-2 10 -2 33z " />
<glyph unicode="&#xa1;" horiz-adv-x="305" d="M113 928v90h80v-90h-80zM119 -416l8 1207h49l8 -1207h-65z" />
<glyph unicode="&#xa2;" horiz-adv-x="1175" d="M113 717q0 137 68.5 259t188 199.5t265.5 84.5v174h49v-174q219 -8 379 -179l-31 -43q-70 80 -167 124t-203 44q-131 0 -246 -66.5t-182.5 -179t-67.5 -243.5t67.5 -244t182 -178.5t246.5 -65.5q106 0 203.5 44t166.5 124l31 -43q-160 -170 -379 -178v-176h-49v176 q-146 6 -265.5 82t-188 198t-68.5 261z" />
<glyph unicode="&#xa3;" horiz-adv-x="1114" d="M113 0v57q75 0 139.5 44t103.5 119t39 163q0 92 -45 180h-233v45h209q-82 104 -131.5 214t-49.5 212q0 127 54.5 222.5t149.5 146.5t214 51q152 0 258.5 -93t126.5 -241h-47q-20 131 -110.5 210t-227.5 79q-100 0 -184 -43t-135 -127t-51 -205q0 -113 53 -214t135 -212 h319v-45h-297q39 -90 39 -176q0 -117 -57 -209t-129 -125h745v-53h-888z" />
<glyph unicode="&#xa5;" horiz-adv-x="1157" d="M113 1434h59l408 -713l409 713h55l-426 -744h256v-49h-270v-174h270v-49h-270v-418h-49v418h-268v49h268v174h-268v49h254z" />
<glyph unicode="&#xa7;" horiz-adv-x="843" d="M113 543q0 92 47 161.5t122.5 106.5t157.5 37q-14 10 -101 62.5t-146.5 126t-59.5 149.5q0 68 41 126t109.5 92t150.5 34q68 0 137.5 -36t114.5 -95.5t45 -128.5h-49q0 59 -39 108t-97.5 78t-111.5 29q-104 0 -181 -60.5t-77 -146.5q0 -84 63.5 -145.5t186.5 -137.5 q18 -10 55 -35q141 -92 193.5 -159.5t52.5 -165.5q0 -92 -46 -162t-123 -107.5t-165 -37.5q152 -106 214.5 -155.5t88 -94.5t25.5 -109q0 -66 -41 -123t-109.5 -91t-150.5 -34q-66 0 -132.5 35t-109.5 93.5t-43 127.5h47q0 -57 37 -106t92.5 -78t108.5 -29q104 0 180 60.5 t76 144.5q0 80 -73 147.5t-210 157.5q-102 68 -158.5 115t-89 106.5t-32.5 139.5zM156 543q0 -70 35.5 -130.5t96 -96t132.5 -35.5q110 0 186 75.5t76 186.5q0 70 -36 129t-96.5 95t-129.5 36q-72 0 -132.5 -35t-96 -95.5t-35.5 -129.5z" />
<glyph unicode="&#xa8;" horiz-adv-x="550" d="M113 1630q0 27 19.5 46.5t45.5 19.5q29 0 48.5 -19.5t19.5 -46.5q0 -25 -19.5 -44t-48.5 -19q-26 0 -45.5 19.5t-19.5 43.5zM326 1630q0 27 20.5 46.5t48.5 19.5q27 0 46.5 -19.5t19.5 -46.5q0 -25 -19.5 -44t-46.5 -19q-26 0 -47.5 19.5t-21.5 43.5z" />
<glyph unicode="&#xa9;" horiz-adv-x="1796" d="M113 719q0 213 105.5 393t286.5 285.5t394 105.5t393.5 -105.5t285.5 -285.5t105 -393t-105 -394.5t-285.5 -287t-393.5 -105.5t-394 105.5t-286.5 287t-105.5 394.5zM162 719q0 -199 100 -368t269 -268t368 -99q197 0 366 99t268 268t99 368q0 197 -99 366.5t-268 269 t-366 99.5q-199 0 -368 -100.5t-269 -269.5t-100 -365zM444 719q0 123 61.5 227.5t166 166t227.5 61.5q94 0 180 -39t154 -109l-27 -49q-55 63 -136 104t-171 41q-113 0 -205 -56t-145 -148.5t-53 -198.5t53 -199.5t146 -149t204 -55.5q94 0 173 40t134 106l27 -51 q-66 -70 -152 -108t-182 -38q-125 0 -228.5 61.5t-165 165t-61.5 228.5z" />
<glyph unicode="&#xab;" horiz-adv-x="811" d="M113 723l374 467h72l-373 -467l373 -463h-70zM324 723l374 467h72l-373 -467l373 -463h-70z" />
<glyph unicode="&#xad;" horiz-adv-x="792" d="M113 692v49h567v-49h-567z" />
<glyph unicode="&#xae;" horiz-adv-x="854" d="M113 1255q0 86 42 159t114.5 115t156.5 42q86 0 158.5 -42t114.5 -115t42 -159t-42 -158.5t-114.5 -114.5t-158.5 -42q-84 0 -156.5 42t-114.5 114.5t-42 158.5zM160 1255q0 -72 35.5 -133t97 -97t133.5 -36t133.5 36t97 97.5t35.5 132.5q0 72 -35.5 133.5t-97 97.5 t-133.5 36t-133.5 -36t-97 -97.5t-35.5 -133.5zM324 1108v328h108q51 0 85 -35t34 -82q0 -29 -16.5 -59.5t-42.5 -45.5l65 -106h-53l-58 88q-6 -2 -75 -2v-86h-47zM371 1237h47q35 0 60.5 23.5t25.5 58.5q0 33 -22.5 53.5t-49.5 20.5h-61v-156z" />
<glyph unicode="&#xaf;" horiz-adv-x="782" d="M113 1630v56h649v-56h-649z" />
<glyph unicode="&#xb0;" horiz-adv-x="522" d="M20 1217q0 63 32 119.5t86.5 90t119.5 33.5q61 0 117.5 -34.5t91.5 -91t35 -117.5t-35 -117t-91.5 -88.5t-117.5 -32.5q-65 0 -119.5 32.5t-86.5 88t-32 117.5zM74 1217q0 -74 55 -129.5t129 -55.5q82 0 133 54.5t51 130.5q0 82 -53 133t-131 51q-76 0 -130 -51.5 t-54 -132.5z" />
<glyph unicode="&#xb2;" horiz-adv-x="524" d="M61 844l314 381q18 22 27.5 42.5t9.5 55.5q0 55 -45 99t-101 44q-47 0 -86 -27.5t-53 -70.5l-45 18q20 57 71.5 92t112.5 35q78 0 136.5 -57t58.5 -137q0 -43 -11.5 -70.5t-33.5 -54.5l-244 -297h291v-53h-402z" />
<glyph unicode="&#xb3;" horiz-adv-x="534" d="M61 938l43 31q25 -37 63 -58.5t79 -21.5q74 0 125 52t51 126q0 78 -52.5 128t-131.5 67l118 182h-245v51h342l-138 -207q70 -25 114 -85t44 -134q0 -96 -66.5 -163.5t-160.5 -67.5q-58 0 -105 26.5t-80 73.5z" />
<glyph unicode="&#xb4;" horiz-adv-x="423" d="M113 1556l114 218h84l-161 -218h-37z" />
<glyph unicode="&#xb7;" horiz-adv-x="1089" d="M410 692q0 55 39.5 95t95.5 40q55 0 95 -39.5t40 -95.5q0 -55 -40 -95t-95 -40q-56 0 -95.5 40t-39.5 95z" />
<glyph unicode="&#xb8;" horiz-adv-x="438" d="M113 -309l39 78q18 -19 49.5 -30t62.5 -11q33 0 53.5 12t20.5 35q0 37 -26.5 56t-67.5 19q-37 0 -66 -10l96 160h54l-58 -94q70 -4 109 -44t39 -93q0 -59 -45 -91t-111 -32q-82 0 -149 45z" />
<glyph unicode="&#xb9;" horiz-adv-x="264" d="M61 1294l142 215v-667h-49v514l-58 -84z" />
<glyph unicode="&#xbb;" horiz-adv-x="811" d="M41 260l373 463l-373 467h72l374 -467l-376 -463h-70zM252 260l373 463l-373 467h72l374 -467l-376 -463h-70z" />
<glyph unicode="&#xbf;" horiz-adv-x="866" d="M113 -74q0 190 223 367q98 78 156.5 152.5t58.5 168.5v172h51v-174q0 -115 -68.5 -198.5t-168.5 -161.5q-96 -76 -149.5 -152.5t-53.5 -173.5q0 -86 44 -158.5t119.5 -114.5t163.5 -42q127 0 234 78l31 -41q-118 -88 -265 -88q-100 0 -187 49t-138 134t-51 183zM535 924 v90h81v-90h-81z" />
<glyph unicode="&#xc0;" d="M102 0l459 1475l457 -1475h-53l-82 256h-650l-79 -256h-52zM252 307h616l-307 1004zM385 1774h84l115 -218h-37z" />
<glyph unicode="&#xc1;" d="M102 0l459 1475l457 -1475h-53l-82 256h-650l-79 -256h-52zM252 307h616l-307 1004zM549 1556l115 218h67l-145 -218h-37z" />
<glyph unicode="&#xc2;" d="M102 0l459 1475l457 -1475h-53l-82 256h-650l-79 -256h-52zM252 307h616l-307 1004zM352 1565l207 219l209 -219l-35 -33l-174 180l-172 -178z" />
<glyph unicode="&#xc3;" d="M102 0l459 1475l457 -1475h-53l-82 256h-650l-79 -256h-52zM252 307h616l-307 1004zM344 1587q0 55 26.5 94t78.5 39q35 0 63.5 -17t62.5 -50q29 -27 48.5 -40.5t42.5 -13.5q47 0 61 36t8 83l39 -10q2 -10 2 -29q0 -53 -28.5 -93t-81.5 -40q-41 0 -72 18.5t-66 51.5 q-25 25 -43 37t-36 12q-33 0 -46.5 -26.5t-13.5 -61.5q0 -18 2 -27l-45 6q-2 10 -2 31z" />
<glyph unicode="&#xc4;" d="M102 0l459 1475l457 -1475h-53l-82 256h-650l-79 -256h-52zM252 307h616l-307 1004zM391 1630q0 27 19.5 46.5t46.5 19.5q29 0 48 -19.5t19 -46.5q0 -25 -19.5 -44t-47.5 -19q-27 0 -46.5 19.5t-19.5 43.5zM604 1630q0 27 20.5 46.5t49.5 19.5q27 0 46 -19.5t19 -46.5 q0 -25 -19.5 -44t-45.5 -19q-27 0 -48.5 19.5t-21.5 43.5z" />
<glyph unicode="&#xc5;" d="M102 0l459 1475l457 -1475h-53l-82 256h-650l-79 -256h-52zM252 307h616l-307 1004zM424 1653q0 57 39 98t96 41q55 0 97 -42t42 -97q0 -53 -42 -94t-97 -41q-57 0 -96 39.5t-39 95.5zM469 1653q0 -35 27.5 -62.5t62.5 -27.5q39 0 64.5 26.5t25.5 63.5q0 39 -26.5 64.5 t-63.5 25.5t-63.5 -25.5t-26.5 -64.5z" />
<glyph unicode="&#xc6;" horiz-adv-x="1523" d="M113 0l452 1434h846v-50h-647v-444h631v-53h-631v-834h647v-53h-696v256h-471l-80 -256h-51zM262 307h453v1077h-115z" />
<glyph unicode="&#xc7;" horiz-adv-x="1267" d="M92 717q0 201 93.5 369.5t252 268t346.5 99.5q197 0 371 -113l-29 -43q-162 106 -342 107q-174 0 -320.5 -93t-233.5 -251t-87 -344t87 -344t233.5 -251t320.5 -93q184 0 334 102l29 -43q-158 -102 -346 -108l-41 -74q63 -4 97 -38t34 -73q0 -49 -44 -83t-106 -34 q-66 0 -125 39l25 52q20 -20 48 -30.5t56 -10.5q37 0 61.5 17t24.5 54q0 31 -26.5 47.5t-65.5 16.5t-65 -15l78 132q-180 8 -332 109t-240 267t-88 361z" />
<glyph unicode="&#xc8;" horiz-adv-x="921" d="M113 0v1434h696v-50h-647v-448h631v-49h-631v-838h647v-49h-696zM352 1774h84l115 -218h-37z" />
<glyph unicode="&#xc9;" horiz-adv-x="921" d="M113 0v1434h696v-50h-647v-448h631v-49h-631v-838h647v-49h-696zM391 1556l115 218h67l-145 -218h-37z" />
<glyph unicode="&#xca;" horiz-adv-x="921" d="M113 0v1434h696v-50h-647v-448h631v-49h-631v-838h647v-49h-696zM254 1565l207 219l209 -219l-35 -33l-174 180l-172 -178z" />
<glyph unicode="&#xcb;" horiz-adv-x="921" d="M113 0v1434h696v-50h-647v-448h631v-49h-631v-838h647v-49h-696zM287 1630q0 27 19.5 46.5t45.5 19.5q29 0 48.5 -19.5t19.5 -46.5q0 -25 -19.5 -44t-48.5 -19q-26 0 -45.5 19.5t-19.5 43.5zM500 1630q0 27 20.5 46.5t48.5 19.5q27 0 46.5 -19.5t19.5 -46.5 q0 -25 -19.5 -44t-46.5 -19q-26 0 -47.5 19.5t-21.5 43.5z" />
<glyph unicode="&#xcc;" horiz-adv-x="315" d="M-27 1774h84l115 -218h-37zM133 0v1434h49v-1434h-49z" />
<glyph unicode="&#xcd;" horiz-adv-x="315" d="M133 0v1434h49v-1434h-49zM143 1556l115 218h68l-146 -218h-37z" />
<glyph unicode="&#xce;" horiz-adv-x="315" d="M-49 1565l207 219l209 -219l-35 -33l-174 180l-172 -178zM133 0v1434h49v-1434h-49z" />
<glyph unicode="&#xcf;" horiz-adv-x="315" d="M-14 1630q0 27 19.5 46.5t45.5 19.5q29 0 48.5 -19.5t19.5 -46.5q0 -25 -19.5 -44t-48.5 -19q-26 0 -45.5 19.5t-19.5 43.5zM133 0v1434h49v-1434h-49zM199 1630q0 27 20.5 46.5t48.5 19.5q27 0 46.5 -19.5t19.5 -46.5q0 -25 -19.5 -44t-46.5 -19q-26 0 -47.5 19.5 t-21.5 43.5z" />
<glyph unicode="&#xd0;" horiz-adv-x="1148" d="M0 692v49h113v693h239q197 0 364 -97.5t264 -264.5t97 -361q0 -197 -96 -360t-262 -257t-367 -94h-239v692h-113zM162 49h188q187 0 340.5 88t243.5 239.5t90 334.5q0 182 -90 336.5t-246 245.5t-338 91h-188v-643h405v-49h-405v-643z" />
<glyph unicode="&#xd1;" horiz-adv-x="1118" d="M94 4v1462l860 -1314v1282h52v-1454l-863 1314v-1290h-49zM334 1587q0 55 26.5 94t77.5 39q35 0 63.5 -17t63.5 -50q29 -27 48.5 -40.5t41.5 -13.5q47 0 61.5 36t8.5 83l39 -10q2 -10 2 -29q0 -53 -28.5 -93t-82.5 -40q-41 0 -71.5 18.5t-65.5 51.5q-25 25 -43 37t-37 12 q-33 0 -46 -26.5t-13 -61.5q0 -18 2 -27l-45 6q-2 10 -2 31z" />
<glyph unicode="&#xd2;" horiz-adv-x="1568" d="M92 717q0 199 93.5 368.5t252 269t346.5 99.5q186 0 346 -99.5t253.5 -269.5t93.5 -368q0 -199 -93.5 -369t-253 -269t-346.5 -99q-188 0 -346.5 99t-252 269t-93.5 369zM143 717q0 -186 87 -345t233.5 -251t320.5 -92t321.5 92t233.5 250.5t86 345.5q0 186 -87 345 t-233.5 251t-320.5 92t-321.5 -92t-233.5 -251t-86 -345zM629 1774h84l114 -218h-36z" />
<glyph unicode="&#xd3;" horiz-adv-x="1568" d="M92 717q0 199 93.5 368.5t252 269t346.5 99.5q186 0 346 -99.5t253.5 -269.5t93.5 -368q0 -199 -93.5 -369t-253 -269t-346.5 -99q-188 0 -346.5 99t-252 269t-93.5 369zM143 717q0 -186 87 -345t233.5 -251t320.5 -92t321.5 92t233.5 250.5t86 345.5q0 186 -87 345 t-233.5 251t-320.5 92t-321.5 -92t-233.5 -251t-86 -345zM788 1556l115 218h68l-146 -218h-37z" />
<glyph unicode="&#xd4;" horiz-adv-x="1568" d="M92 717q0 199 93.5 368.5t252 269t346.5 99.5q186 0 346 -99.5t253.5 -269.5t93.5 -368q0 -199 -93.5 -369t-253 -269t-346.5 -99q-188 0 -346.5 99t-252 269t-93.5 369zM143 717q0 -186 87 -345t233.5 -251t320.5 -92t321.5 92t233.5 250.5t86 345.5q0 186 -87 345 t-233.5 251t-320.5 92t-321.5 -92t-233.5 -251t-86 -345zM578 1565l206 219l209 -219l-35 -33l-174 180l-172 -178z" />
<glyph unicode="&#xd5;" horiz-adv-x="1568" d="M92 717q0 199 93.5 368.5t252 269t346.5 99.5q186 0 346 -99.5t253.5 -269.5t93.5 -368q0 -199 -93.5 -369t-253 -269t-346.5 -99q-188 0 -346.5 99t-252 269t-93.5 369zM143 717q0 -186 87 -345t233.5 -251t320.5 -92t321.5 92t233.5 250.5t86 345.5q0 186 -87 345 t-233.5 251t-320.5 92t-321.5 -92t-233.5 -251t-86 -345zM567 1587q0 55 27 94t78 39q35 0 63.5 -17t63.5 -50q29 -27 48 -40.5t42 -13.5q47 0 61.5 36t7.5 83l39 -10q2 -10 2 -29q0 -53 -28.5 -93t-81.5 -40q-41 0 -72 18.5t-65 51.5q-25 25 -43.5 37t-36.5 12 q-33 0 -46.5 -26.5t-13.5 -61.5q0 -18 2 -27l-45 6q-2 10 -2 31z" />
<glyph unicode="&#xd6;" horiz-adv-x="1568" d="M92 717q0 199 93.5 368.5t252 269t346.5 99.5q186 0 346 -99.5t253.5 -269.5t93.5 -368q0 -199 -93.5 -369t-253 -269t-346.5 -99q-188 0 -346.5 99t-252 269t-93.5 369zM143 717q0 -186 87 -345t233.5 -251t320.5 -92t321.5 92t233.5 250.5t86 345.5q0 186 -87 345 t-233.5 251t-320.5 92t-321.5 -92t-233.5 -251t-86 -345zM610 1630q0 27 19.5 46.5t46.5 19.5q29 0 48 -19.5t19 -46.5q0 -25 -19 -44t-48 -19q-27 0 -46.5 19.5t-19.5 43.5zM823 1630q0 27 20.5 46.5t49.5 19.5q27 0 46 -19.5t19 -46.5q0 -25 -19 -44t-46 -19t-48.5 19.5 t-21.5 43.5z" />
<glyph unicode="&#xd7;" horiz-adv-x="901" d="M113 418l301 301l-301 301l34 35l302 -301l303 303l36 -37l-303 -303l301 -301l-34 -35l-301 301l-301 -301z" />
<glyph unicode="&#xd8;" horiz-adv-x="1568" d="M92 717q0 199 93.5 368.5t252 269t346.5 99.5q143 0 272.5 -60.5t225.5 -166.5l148 147l36 -35l-151 -151q76 -96 119 -218t43 -253q0 -199 -93.5 -369t-253 -269t-346.5 -99q-135 0 -258 53t-217 149l-129 -129l-37 35l131 131q-86 100 -134 228t-48 270zM143 717 q0 -131 44 -250t122 -213l938 938q-90 100 -209.5 156.5t-253.5 56.5q-174 0 -321.5 -92t-233.5 -251t-86 -345zM344 217q88 -90 201.5 -139t238.5 -49q174 0 321.5 92t233.5 250.5t86 345.5q0 121 -37.5 232.5t-107.5 203.5z" />
<glyph unicode="&#xd9;" horiz-adv-x="1171" d="M113 426v1008h49v-1008q0 -104 58.5 -195.5t156.5 -146.5t209 -55t209 55t156.5 146.5t58.5 195.5v1008h49v-1008q0 -119 -64.5 -221.5t-173 -163.5t-235.5 -61q-125 0 -234.5 61t-174 163.5t-64.5 221.5zM428 1774h84l115 -218h-37z" />
<glyph unicode="&#xda;" horiz-adv-x="1171" d="M113 426v1008h49v-1008q0 -104 58.5 -195.5t156.5 -146.5t209 -55t209 55t156.5 146.5t58.5 195.5v1008h49v-1008q0 -119 -64.5 -221.5t-173 -163.5t-235.5 -61q-125 0 -234.5 61t-174 163.5t-64.5 221.5zM551 1556l115 218h67l-145 -218h-37z" />
<glyph unicode="&#xdb;" horiz-adv-x="1171" d="M113 426v1008h49v-1008q0 -104 58.5 -195.5t156.5 -146.5t209 -55t209 55t156.5 146.5t58.5 195.5v1008h49v-1008q0 -119 -64.5 -221.5t-173 -163.5t-235.5 -61q-125 0 -234.5 61t-174 163.5t-64.5 221.5zM379 1565l207 219l209 -219l-35 -33l-174 180l-172 -178z" />
<glyph unicode="&#xdc;" horiz-adv-x="1171" d="M113 426v1008h49v-1008q0 -104 58.5 -195.5t156.5 -146.5t209 -55t209 55t156.5 146.5t58.5 195.5v1008h49v-1008q0 -119 -64.5 -221.5t-173 -163.5t-235.5 -61q-125 0 -234.5 61t-174 163.5t-64.5 221.5zM412 1630q0 27 19.5 46.5t45.5 19.5q29 0 48.5 -19.5t19.5 -46.5 q0 -25 -19.5 -44t-48.5 -19q-26 0 -45.5 19.5t-19.5 43.5zM625 1630q0 27 20.5 46.5t48.5 19.5q27 0 46.5 -19.5t19.5 -46.5q0 -25 -19.5 -44t-46.5 -19q-26 0 -47.5 19.5t-21.5 43.5z" />
<glyph unicode="&#xdd;" horiz-adv-x="1116" d="M92 1434h60l407 -713l410 713h55l-440 -768v-666h-49v666zM547 1556l115 218h67l-145 -218h-37z" />
<glyph unicode="&#xde;" horiz-adv-x="962" d="M113 0v1434h49v-277h282q115 0 213.5 -58.5t155.5 -156.5t57 -215q0 -125 -67.5 -226.5t-178 -159.5t-231.5 -58h-231v-283h-49zM162 332h231q109 0 207 53t158.5 144.5t60.5 197.5q0 102 -50 190.5t-136 139.5t-191 51h-280v-776z" />
<glyph unicode="&#xdf;" horiz-adv-x="1228" d="M82 0v934q0 154 63.5 268.5t175 175t250.5 60.5q162 0 326 -78l-231 -379q156 -68 242.5 -197t86.5 -286q0 -154 -69.5 -273t-189.5 -184.5t-263 -65.5q-106 1 -217 48l27 45q102 -45 188 -45q145 0 252.5 66.5t163 176t55.5 232.5q0 145 -88 273t-264 179l231 387 q-4 0 -69.5 24.5t-180.5 24.5q-152 0 -250 -66.5t-143 -169.5t-45 -216v-934h-51z" />
<glyph unicode="&#xe0;" d="M102 0l459 1475l457 -1475h-53l-82 256h-650l-79 -256h-52zM252 307h616l-307 1004zM385 1774h84l115 -218h-37z" />
<glyph unicode="&#xe1;" d="M102 0l459 1475l457 -1475h-53l-82 256h-650l-79 -256h-52zM252 307h616l-307 1004zM549 1556l115 218h67l-145 -218h-37z" />
<glyph unicode="&#xe2;" d="M102 0l459 1475l457 -1475h-53l-82 256h-650l-79 -256h-52zM252 307h616l-307 1004zM352 1565l207 219l209 -219l-35 -33l-174 180l-172 -178z" />
<glyph unicode="&#xe3;" d="M102 0l459 1475l457 -1475h-53l-82 256h-650l-79 -256h-52zM252 307h616l-307 1004zM344 1587q0 55 26.5 94t78.5 39q35 0 63.5 -17t62.5 -50q29 -27 48.5 -40.5t42.5 -13.5q47 0 61 36t8 83l39 -10q2 -10 2 -29q0 -53 -28.5 -93t-81.5 -40q-41 0 -72 18.5t-66 51.5 q-25 25 -43 37t-36 12q-33 0 -46.5 -26.5t-13.5 -61.5q0 -18 2 -27l-45 6q-2 10 -2 31z" />
<glyph unicode="&#xe4;" d="M102 0l459 1475l457 -1475h-53l-82 256h-650l-79 -256h-52zM252 307h616l-307 1004zM391 1630q0 27 19.5 46.5t46.5 19.5q29 0 48 -19.5t19 -46.5q0 -25 -19.5 -44t-47.5 -19q-27 0 -46.5 19.5t-19.5 43.5zM604 1630q0 27 20.5 46.5t49.5 19.5q27 0 46 -19.5t19 -46.5 q0 -25 -19.5 -44t-45.5 -19q-27 0 -48.5 19.5t-21.5 43.5z" />
<glyph unicode="&#xe5;" d="M102 0l459 1475l457 -1475h-53l-82 256h-650l-79 -256h-52zM252 307h616l-307 1004zM424 1653q0 57 39 98t96 41q55 0 97 -42t42 -97q0 -53 -42 -94t-97 -41q-57 0 -96 39.5t-39 95.5zM469 1653q0 -35 27.5 -62.5t62.5 -27.5q39 0 64.5 26.5t25.5 63.5q0 39 -26.5 64.5 t-63.5 25.5t-63.5 -25.5t-26.5 -64.5z" />
<glyph unicode="&#xe6;" horiz-adv-x="1523" d="M113 0l452 1434h846v-50h-647v-444h631v-53h-631v-834h647v-53h-696v256h-471l-80 -256h-51zM262 307h453v1077h-115z" />
<glyph unicode="&#xe7;" horiz-adv-x="1267" d="M92 717q0 201 93.5 369.5t252 268t346.5 99.5q197 0 371 -113l-29 -43q-162 106 -342 107q-174 0 -320.5 -93t-233.5 -251t-87 -344t87 -344t233.5 -251t320.5 -93q184 0 334 102l29 -43q-158 -102 -346 -108l-41 -74q63 -4 97 -38t34 -73q0 -49 -44 -83t-106 -34 q-66 0 -125 39l25 52q20 -20 48 -30.5t56 -10.5q37 0 61.5 17t24.5 54q0 31 -26.5 47.5t-65.5 16.5t-65 -15l78 132q-180 8 -332 109t-240 267t-88 361z" />
<glyph unicode="&#xe8;" horiz-adv-x="921" d="M113 0v1434h696v-50h-647v-448h631v-49h-631v-838h647v-49h-696zM352 1774h84l115 -218h-37z" />
<glyph unicode="&#xe9;" horiz-adv-x="921" d="M113 0v1434h696v-50h-647v-448h631v-49h-631v-838h647v-49h-696zM391 1556l115 218h67l-145 -218h-37z" />
<glyph unicode="&#xea;" horiz-adv-x="921" d="M113 0v1434h696v-50h-647v-448h631v-49h-631v-838h647v-49h-696zM254 1565l207 219l209 -219l-35 -33l-174 180l-172 -178z" />
<glyph unicode="&#xeb;" horiz-adv-x="921" d="M113 0v1434h696v-50h-647v-448h631v-49h-631v-838h647v-49h-696zM287 1630q0 27 19.5 46.5t45.5 19.5q29 0 48.5 -19.5t19.5 -46.5q0 -25 -19.5 -44t-48.5 -19q-26 0 -45.5 19.5t-19.5 43.5zM500 1630q0 27 20.5 46.5t48.5 19.5q27 0 46.5 -19.5t19.5 -46.5 q0 -25 -19.5 -44t-46.5 -19q-26 0 -47.5 19.5t-21.5 43.5z" />
<glyph unicode="&#xec;" horiz-adv-x="315" d="M-27 1774h84l115 -218h-37zM133 0v1434h49v-1434h-49z" />
<glyph unicode="&#xed;" horiz-adv-x="315" d="M133 0v1434h49v-1434h-49zM143 1556l115 218h68l-146 -218h-37z" />
<glyph unicode="&#xee;" horiz-adv-x="315" d="M-49 1565l207 219l209 -219l-35 -33l-174 180l-172 -178zM133 0v1434h49v-1434h-49z" />
<glyph unicode="&#xef;" horiz-adv-x="315" d="M-14 1630q0 27 19.5 46.5t45.5 19.5q29 0 48.5 -19.5t19.5 -46.5q0 -25 -19.5 -44t-48.5 -19q-26 0 -45.5 19.5t-19.5 43.5zM133 0v1434h49v-1434h-49zM199 1630q0 27 20.5 46.5t48.5 19.5q27 0 46.5 -19.5t19.5 -46.5q0 -25 -19.5 -44t-46.5 -19q-26 0 -47.5 19.5 t-21.5 43.5z" />
<glyph unicode="&#xf0;" horiz-adv-x="1148" d="M0 692v49h113v693h239q197 0 364 -97.5t264 -264.5t97 -361q0 -197 -96 -360t-262 -257t-367 -94h-239v692h-113zM162 49h188q187 0 340.5 88t243.5 239.5t90 334.5q0 182 -90 336.5t-246 245.5t-338 91h-188v-643h405v-49h-405v-643z" />
<glyph unicode="&#xf1;" horiz-adv-x="1118" d="M94 4v1462l860 -1314v1282h52v-1454l-863 1314v-1290h-49zM334 1587q0 55 26.5 94t77.5 39q35 0 63.5 -17t63.5 -50q29 -27 48.5 -40.5t41.5 -13.5q47 0 61.5 36t8.5 83l39 -10q2 -10 2 -29q0 -53 -28.5 -93t-82.5 -40q-41 0 -71.5 18.5t-65.5 51.5q-25 25 -43 37t-37 12 q-33 0 -46 -26.5t-13 -61.5q0 -18 2 -27l-45 6q-2 10 -2 31z" />
<glyph unicode="&#xf2;" horiz-adv-x="1568" d="M92 717q0 199 93.5 368.5t252 269t346.5 99.5q186 0 346 -99.5t253.5 -269.5t93.5 -368q0 -199 -93.5 -369t-253 -269t-346.5 -99q-188 0 -346.5 99t-252 269t-93.5 369zM143 717q0 -186 87 -345t233.5 -251t320.5 -92t321.5 92t233.5 250.5t86 345.5q0 186 -87 345 t-233.5 251t-320.5 92t-321.5 -92t-233.5 -251t-86 -345zM629 1774h84l114 -218h-36z" />
<glyph unicode="&#xf3;" horiz-adv-x="1568" d="M92 717q0 199 93.5 368.5t252 269t346.5 99.5q186 0 346 -99.5t253.5 -269.5t93.5 -368q0 -199 -93.5 -369t-253 -269t-346.5 -99q-188 0 -346.5 99t-252 269t-93.5 369zM143 717q0 -186 87 -345t233.5 -251t320.5 -92t321.5 92t233.5 250.5t86 345.5q0 186 -87 345 t-233.5 251t-320.5 92t-321.5 -92t-233.5 -251t-86 -345zM788 1556l115 218h68l-146 -218h-37z" />
<glyph unicode="&#xf4;" horiz-adv-x="1568" d="M92 717q0 199 93.5 368.5t252 269t346.5 99.5q186 0 346 -99.5t253.5 -269.5t93.5 -368q0 -199 -93.5 -369t-253 -269t-346.5 -99q-188 0 -346.5 99t-252 269t-93.5 369zM143 717q0 -186 87 -345t233.5 -251t320.5 -92t321.5 92t233.5 250.5t86 345.5q0 186 -87 345 t-233.5 251t-320.5 92t-321.5 -92t-233.5 -251t-86 -345zM578 1565l206 219l209 -219l-35 -33l-174 180l-172 -178z" />
<glyph unicode="&#xf5;" horiz-adv-x="1568" d="M92 717q0 199 93.5 368.5t252 269t346.5 99.5q186 0 346 -99.5t253.5 -269.5t93.5 -368q0 -199 -93.5 -369t-253 -269t-346.5 -99q-188 0 -346.5 99t-252 269t-93.5 369zM143 717q0 -186 87 -345t233.5 -251t320.5 -92t321.5 92t233.5 250.5t86 345.5q0 186 -87 345 t-233.5 251t-320.5 92t-321.5 -92t-233.5 -251t-86 -345zM567 1587q0 55 27 94t78 39q35 0 63.5 -17t63.5 -50q29 -27 48 -40.5t42 -13.5q47 0 61.5 36t7.5 83l39 -10q2 -10 2 -29q0 -53 -28.5 -93t-81.5 -40q-41 0 -72 18.5t-65 51.5q-25 25 -43.5 37t-36.5 12 q-33 0 -46.5 -26.5t-13.5 -61.5q0 -18 2 -27l-45 6q-2 10 -2 31z" />
<glyph unicode="&#xf6;" horiz-adv-x="1568" d="M92 717q0 199 93.5 368.5t252 269t346.5 99.5q186 0 346 -99.5t253.5 -269.5t93.5 -368q0 -199 -93.5 -369t-253 -269t-346.5 -99q-188 0 -346.5 99t-252 269t-93.5 369zM143 717q0 -186 87 -345t233.5 -251t320.5 -92t321.5 92t233.5 250.5t86 345.5q0 186 -87 345 t-233.5 251t-320.5 92t-321.5 -92t-233.5 -251t-86 -345zM610 1630q0 27 19.5 46.5t46.5 19.5q29 0 48 -19.5t19 -46.5q0 -25 -19 -44t-48 -19q-27 0 -46.5 19.5t-19.5 43.5zM823 1630q0 27 20.5 46.5t49.5 19.5q27 0 46 -19.5t19 -46.5q0 -25 -19 -44t-46 -19t-48.5 19.5 t-21.5 43.5z" />
<glyph unicode="&#xf8;" horiz-adv-x="1568" d="M92 717q0 199 93.5 368.5t252 269t346.5 99.5q143 0 272.5 -60.5t225.5 -166.5l148 147l36 -35l-151 -151q76 -96 119 -218t43 -253q0 -199 -93.5 -369t-253 -269t-346.5 -99q-135 0 -258 53t-217 149l-129 -129l-37 35l131 131q-86 100 -134 228t-48 270zM143 717 q0 -131 44 -250t122 -213l938 938q-90 100 -209.5 156.5t-253.5 56.5q-174 0 -321.5 -92t-233.5 -251t-86 -345zM344 217q88 -90 201.5 -139t238.5 -49q174 0 321.5 92t233.5 250.5t86 345.5q0 121 -37.5 232.5t-107.5 203.5z" />
<glyph unicode="&#xf9;" horiz-adv-x="1171" d="M113 426v1008h49v-1008q0 -104 58.5 -195.5t156.5 -146.5t209 -55t209 55t156.5 146.5t58.5 195.5v1008h49v-1008q0 -119 -64.5 -221.5t-173 -163.5t-235.5 -61q-125 0 -234.5 61t-174 163.5t-64.5 221.5zM428 1774h84l115 -218h-37z" />
<glyph unicode="&#xfa;" horiz-adv-x="1171" d="M113 426v1008h49v-1008q0 -104 58.5 -195.5t156.5 -146.5t209 -55t209 55t156.5 146.5t58.5 195.5v1008h49v-1008q0 -119 -64.5 -221.5t-173 -163.5t-235.5 -61q-125 0 -234.5 61t-174 163.5t-64.5 221.5zM551 1556l115 218h67l-145 -218h-37z" />
<glyph unicode="&#xfb;" horiz-adv-x="1171" d="M113 426v1008h49v-1008q0 -104 58.5 -195.5t156.5 -146.5t209 -55t209 55t156.5 146.5t58.5 195.5v1008h49v-1008q0 -119 -64.5 -221.5t-173 -163.5t-235.5 -61q-125 0 -234.5 61t-174 163.5t-64.5 221.5zM379 1565l207 219l209 -219l-35 -33l-174 180l-172 -178z" />
<glyph unicode="&#xfc;" horiz-adv-x="1171" d="M113 426v1008h49v-1008q0 -104 58.5 -195.5t156.5 -146.5t209 -55t209 55t156.5 146.5t58.5 195.5v1008h49v-1008q0 -119 -64.5 -221.5t-173 -163.5t-235.5 -61q-125 0 -234.5 61t-174 163.5t-64.5 221.5zM412 1630q0 27 19.5 46.5t45.5 19.5q29 0 48.5 -19.5t19.5 -46.5 q0 -25 -19.5 -44t-48.5 -19q-26 0 -45.5 19.5t-19.5 43.5zM625 1630q0 27 20.5 46.5t48.5 19.5q27 0 46.5 -19.5t19.5 -46.5q0 -25 -19.5 -44t-46.5 -19q-26 0 -47.5 19.5t-21.5 43.5z" />
<glyph unicode="&#xfd;" horiz-adv-x="1116" d="M92 1434h60l407 -713l410 713h55l-440 -768v-666h-49v666zM547 1556l115 218h67l-145 -218h-37z" />
<glyph unicode="&#xfe;" horiz-adv-x="962" d="M113 0v1434h49v-277h282q115 0 213.5 -58.5t155.5 -156.5t57 -215q0 -125 -67.5 -226.5t-178 -159.5t-231.5 -58h-231v-283h-49zM162 332h231q109 0 207 53t158.5 144.5t60.5 197.5q0 102 -50 190.5t-136 139.5t-191 51h-280v-776z" />
<glyph unicode="&#xff;" horiz-adv-x="1116" d="M92 1434h60l407 -713l410 713h55l-440 -768v-666h-49v666zM385 1630q0 27 19.5 46.5t46.5 19.5q29 0 48 -19.5t19 -46.5q0 -25 -19.5 -44t-47.5 -19q-27 0 -46.5 19.5t-19.5 43.5zM598 1630q0 27 20.5 46.5t49.5 19.5q27 0 46 -19.5t19 -46.5q0 -25 -19.5 -44t-45.5 -19 q-27 0 -48.5 19.5t-21.5 43.5z" />
<glyph unicode="&#x152;" horiz-adv-x="2236" d="M92 717q0 199 93.5 368.5t252 269t346.5 99.5q215 0 390.5 -129t252.5 -336v445h697v-50h-647v-444h630v-53h-630v-834h647v-53h-697v444q-78 -207 -253 -335.5t-390 -128.5q-188 0 -346.5 99t-252 269t-93.5 369zM143 717q0 -186 87 -345t233.5 -251t320.5 -92t321.5 92 t233.5 250.5t86 345.5q0 186 -87 345t-233.5 251t-320.5 92t-321.5 -92t-233.5 -251t-86 -345z" />
<glyph unicode="&#x153;" horiz-adv-x="2236" d="M92 717q0 199 93.5 368.5t252 269t346.5 99.5q215 0 390.5 -129t252.5 -336v445h697v-50h-647v-444h630v-53h-630v-834h647v-53h-697v444q-78 -207 -253 -335.5t-390 -128.5q-188 0 -346.5 99t-252 269t-93.5 369zM143 717q0 -186 87 -345t233.5 -251t320.5 -92t321.5 92 t233.5 250.5t86 345.5q0 186 -87 345t-233.5 251t-320.5 92t-321.5 -92t-233.5 -251t-86 -345z" />
<glyph unicode="&#x178;" horiz-adv-x="1116" d="M92 1434h60l407 -713l410 713h55l-440 -768v-666h-49v666zM385 1630q0 27 19.5 46.5t46.5 19.5q29 0 48 -19.5t19 -46.5q0 -25 -19.5 -44t-47.5 -19q-27 0 -46.5 19.5t-19.5 43.5zM598 1630q0 27 20.5 46.5t49.5 19.5q27 0 46 -19.5t19 -46.5q0 -25 -19.5 -44t-45.5 -19 q-27 0 -48.5 19.5t-21.5 43.5z" />
<glyph unicode="&#x2c6;" horiz-adv-x="589" d="M113 1565l206 219l209 -219l-34 -33l-175 180l-172 -178z" />
<glyph unicode="&#x2dc;" horiz-adv-x="612" d="M113 1587q0 55 26.5 94t77.5 39q35 0 63.5 -17t63.5 -50q29 -27 48.5 -40.5t41.5 -13.5q47 0 61.5 36t8.5 83l39 -10q2 -10 2 -29q0 -53 -29 -93t-82 -40q-41 0 -71.5 18.5t-65.5 51.5q-25 25 -43 37t-37 12q-33 0 -46 -26.5t-13 -61.5q0 -18 2 -27l-45 6q-2 10 -2 31z " />
<glyph unicode="&#x2000;" horiz-adv-x="902" />
<glyph unicode="&#x2001;" horiz-adv-x="1804" />
<glyph unicode="&#x2002;" horiz-adv-x="902" />
<glyph unicode="&#x2003;" horiz-adv-x="1804" />
<glyph unicode="&#x2004;" horiz-adv-x="601" />
<glyph unicode="&#x2005;" horiz-adv-x="451" />
<glyph unicode="&#x2006;" horiz-adv-x="300" />
<glyph unicode="&#x2007;" horiz-adv-x="300" />
<glyph unicode="&#x2008;" horiz-adv-x="225" />
<glyph unicode="&#x2009;" horiz-adv-x="360" />
<glyph unicode="&#x200a;" horiz-adv-x="100" />
<glyph unicode="&#x2010;" horiz-adv-x="792" d="M113 692v49h567v-49h-567z" />
<glyph unicode="&#x2011;" horiz-adv-x="792" d="M113 692v49h567v-49h-567z" />
<glyph unicode="&#x2012;" horiz-adv-x="792" d="M113 692v49h567v-49h-567z" />
<glyph unicode="&#x2013;" horiz-adv-x="1056" d="M113 692v49h831v-49h-831z" />
<glyph unicode="&#x2014;" horiz-adv-x="1226" d="M-82 692v49h1391v-49h-1391z" />
<glyph unicode="&#x2018;" horiz-adv-x="296" d="M61 1300l146 261l29 -11l-82 -276z" />
<glyph unicode="&#x2019;" horiz-adv-x="296" d="M61 1288l82 277l93 -27l-146 -260z" />
<glyph unicode="&#x201a;" horiz-adv-x="296" d="M61 -172l82 276l93 -26l-146 -260z" />
<glyph unicode="&#x201c;" horiz-adv-x="481" d="M61 1300l146 261l29 -11l-82 -276zM246 1300l145 261l29 -11l-82 -276z" />
<glyph unicode="&#x201d;" horiz-adv-x="483" d="M61 1286l82 277l93 -27l-146 -260zM248 1286l82 277l92 -27l-146 -260z" />
<glyph unicode="&#x201e;" horiz-adv-x="483" d="M61 -156l82 277l93 -27l-146 -260zM248 -156l82 277l92 -27l-146 -260z" />
<glyph unicode="&#x2022;" horiz-adv-x="1228" d="M383 692q0 94 68.5 163t162.5 69t163 -69t69 -163t-68.5 -162.5t-163.5 -68.5q-94 0 -162.5 68.5t-68.5 162.5z" />
<glyph unicode="&#x202f;" horiz-adv-x="360" />
<glyph unicode="&#x2039;" horiz-adv-x="600" d="M113 723l374 467h72l-373 -467l373 -463h-70z" />
<glyph unicode="&#x203a;" horiz-adv-x="600" d="M41 260l373 463l-373 467h72l374 -467l-376 -463h-70z" />
<glyph unicode="&#x205f;" horiz-adv-x="451" />
<glyph unicode="&#x20ac;" horiz-adv-x="1034" d="M113 584v49h116q-4 53 -4 84q0 47 6 90h-118v49h125q31 168 129 305t242.5 215t312.5 78v-51q-150 -4 -283 -71.5t-225 -190.5t-123 -285h532v-49h-538q-6 -43 -6 -90q0 -31 4 -84h540v-49h-532q29 -162 121 -287t226 -194.5t284 -71.5v-51q-168 0 -313.5 78.5t-244 217 t-126.5 308.5h-125z" />
<glyph unicode="&#x25fc;" horiz-adv-x="1433" d="M0 0v1434h1434v-1434h-1434z" />
</font>
</defs>
</svg>
